# xmcd
#
# Track frame offsets: 
#        150
#        18913
#        35295
#        47383
#        64050
#        80888
#        94553
#        112530
#        133438
#        148650
#        165170
#
# Disc length: 2387 seconds
#
# Revision: 3
# Processed by: cddbd v1.5.2PL0 Copyright (c) Steve Scherf et al.
# Submitted via: ExactAudioCopy v1.0b3
#
DISCID=8209510b
DTITLE=John Hammond - Solo
DYEAR=1976
DGENRE=Blues
TTITLE0=I Can't Be Satisfied
TTITLE1=Drifting Blues
TTITLE2=Trucking Little Baby
TTITLE3=The Sky Is Crying
TTITLE4=Look On Yonder Wall
TTITLE5=Honest I Do
TTITLE6=I Wish You Would
TTITLE7=Hellhound Blues
TTITLE8=Tell Me
TTITLE9=Guitar King
TTITLE10=Got My Mojo Working
EXTD=
EXTT0=
EXTT1=
EXTT2=
EXTT3=
EXTT4=
EXTT5=
EXTT6=
EXTT7=
EXTT8=
EXTT9=
EXTT10=
PLAYORDER=
